<svg xmlns="http://www.w3.org/2000/svg" viewBox="0 0 680 480" font-family="'Segoe UI', system-ui, -apple-system, sans-serif">
  <defs>
    <linearGradient id="nfFolderGrad" x1="0" y1="0" x2="0" y2="1">
      <stop offset="0%" stop-color="#fef3c7"/>
      <stop offset="100%" stop-color="#fde68a"/>
    </linearGradient>
    <linearGradient id="nfSubGrad" x1="0" y1="0" x2="0" y2="1">
      <stop offset="0%" stop-color="#fff7ed"/>
      <stop offset="100%" stop-color="#fed7aa"/>
    </linearGradient>
    <filter id="nfds" x="-2%" y="-2%" width="104%" height="106%">
      <feDropShadow dx="0" dy="1" stdDeviation="2" flood-color="#00000012"/>
    </filter>
  </defs>

  <!-- Title -->
  <text x="340" y="28" text-anchor="middle" font-size="17" font-weight="700" fill="#1e293b">NetworkMounts — Refactored File Structure</text>

  <!-- Background -->
  <rect x="30" y="44" width="620" height="420" rx="10" fill="#fafafa" stroke="#e2e8f0" stroke-width="1.5" filter="url(#nfds)"/>

  <!-- Root folder -->
  <rect x="50" y="58" width="190" height="28" rx="6" fill="url(#nfFolderGrad)" stroke="#d97706" stroke-width="1.5"/>
  <text x="66" y="77" font-size="13" font-weight="700" fill="#92400e" font-family="'Consolas', monospace">NetworkMounts/</text>

  <!-- Top-level files -->
  <line x1="70" y1="86" x2="70" y2="106" stroke="#cbd5e0" stroke-width="1.2"/>
  <line x1="70" y1="106" x2="90" y2="106" stroke="#cbd5e0" stroke-width="1.2"/>
  <rect x="94" y="94" width="170" height="20" rx="4" fill="#ede9fe" stroke="#c4b5fd" stroke-width="0.8"/>
  <text x="102" y="108" font-size="11" font-family="'Consolas', monospace" fill="#5b21b6">App.h / App.cpp</text>
  <text x="280" y="108" font-size="10" fill="#7c3aed">Entry point</text>

  <line x1="70" y1="106" x2="70" y2="130" stroke="#cbd5e0" stroke-width="1.2"/>
  <line x1="70" y1="130" x2="90" y2="130" stroke="#cbd5e0" stroke-width="1.2"/>
  <rect x="94" y="118" width="230" height="20" rx="4" fill="#f1f5f9" stroke="#cbd5e0" stroke-width="0.8"/>
  <text x="102" y="132" font-size="11" font-family="'Consolas', monospace" fill="#475569">Constants.h / Constants.cpp</text>
  <text x="340" y="132" font-size="10" fill="#94a3b8">Shared constants</text>

  <line x1="70" y1="130" x2="70" y2="154" stroke="#cbd5e0" stroke-width="1.2"/>
  <line x1="70" y1="154" x2="90" y2="154" stroke="#cbd5e0" stroke-width="1.2"/>
  <rect x="94" y="142" width="250" height="20" rx="4" fill="#e0f2fe" stroke="#7dd3fc" stroke-width="0.8"/>
  <text x="102" y="156" font-size="11" font-family="'Consolas', monospace" fill="#0369a1">MainWindow.h / MainWindow.cpp</text>
  <text x="360" y="156" font-size="10" fill="#0284c7">Primary UI</text>

  <line x1="70" y1="154" x2="70" y2="178" stroke="#cbd5e0" stroke-width="1.2"/>
  <line x1="70" y1="178" x2="90" y2="178" stroke="#cbd5e0" stroke-width="1.2"/>
  <rect x="94" y="166" width="290" height="20" rx="4" fill="#e0f2fe" stroke="#7dd3fc" stroke-width="0.8"/>
  <text x="102" y="180" font-size="11" font-family="'Consolas', monospace" fill="#0369a1">EditShareWindow.h / EditShareWindow.cpp</text>
  <text x="400" y="180" font-size="10" fill="#0284c7">Edit dialog</text>

  <line x1="70" y1="178" x2="70" y2="202" stroke="#cbd5e0" stroke-width="1.2"/>
  <line x1="70" y1="202" x2="90" y2="202" stroke="#cbd5e0" stroke-width="1.2"/>
  <rect x="94" y="190" width="230" height="20" rx="4" fill="#dcfce7" stroke="#86efac" stroke-width="0.8"/>
  <text x="102" y="204" font-size="11" font-family="'Consolas', monospace" fill="#166534">ShareItem.h / ShareItem.cpp</text>
  <text x="340" y="204" font-size="10" fill="#059669">BRow subclass</text>

  <line x1="70" y1="202" x2="70" y2="226" stroke="#cbd5e0" stroke-width="1.2"/>
  <line x1="70" y1="226" x2="90" y2="226" stroke="#cbd5e0" stroke-width="1.2"/>
  <rect x="94" y="214" width="210" height="20" rx="4" fill="#fef9c3" stroke="#fde047" stroke-width="0.8"/>
  <text x="102" y="228" font-size="11" font-family="'Consolas', monospace" fill="#854d0e">Settings.h / Settings.cpp</text>
  <text x="320" y="228" font-size="10" fill="#a16207">Persistence</text>

  <!-- backends/ subfolder -->
  <line x1="70" y1="226" x2="70" y2="260" stroke="#cbd5e0" stroke-width="1.2"/>
  <line x1="70" y1="260" x2="90" y2="260" stroke="#cbd5e0" stroke-width="1.2"/>
  <rect x="90" y="248" width="130" height="24" rx="6" fill="url(#nfSubGrad)" stroke="#ea580c" stroke-width="1.2"/>
  <text x="102" y="265" font-size="12" font-weight="600" fill="#9a3412" font-family="'Consolas', monospace">backends/</text>

  <!-- Backend files -->
  <line x1="110" y1="272" x2="110" y2="296" stroke="#cbd5e0" stroke-width="1.2"/>
  <line x1="110" y1="296" x2="130" y2="296" stroke="#cbd5e0" stroke-width="1.2"/>
  <rect x="134" y="284" width="200" height="20" rx="4" fill="#fef2f2" stroke="#fecaca" stroke-width="0.8"/>
  <text x="142" y="298" font-size="11" font-family="'Consolas', monospace" fill="#991b1b">MountBackend.h</text>
  <text x="350" y="298" font-size="10" fill="#dc2626">Abstract base</text>

  <line x1="110" y1="296" x2="110" y2="320" stroke="#cbd5e0" stroke-width="1.2"/>
  <line x1="110" y1="320" x2="130" y2="320" stroke="#cbd5e0" stroke-width="1.2"/>
  <rect x="134" y="308" width="270" height="20" rx="4" fill="#dcfce7" stroke="#86efac" stroke-width="0.8"/>
  <text x="142" y="322" font-size="11" font-family="'Consolas', monospace" fill="#166534">NFSBackend.h / NFSBackend.cpp</text>
  <text x="420" y="322" font-size="10" fill="#16a34a">NFS4</text>

  <line x1="110" y1="320" x2="110" y2="344" stroke="#cbd5e0" stroke-width="1.2"/>
  <line x1="110" y1="344" x2="130" y2="344" stroke="#cbd5e0" stroke-width="1.2"/>
  <rect x="134" y="332" width="270" height="20" rx="4" fill="#e0f2fe" stroke="#7dd3fc" stroke-width="0.8"/>
  <text x="142" y="346" font-size="11" font-family="'Consolas', monospace" fill="#0369a1">SMBBackend.h / SMBBackend.cpp</text>
  <rect x="420" y="334" width="56" height="16" rx="4" fill="#f59e0b"/>
  <text x="448" y="346" text-anchor="middle" font-size="8" font-weight="700" fill="white">FUTURE</text>

  <!-- Build/resource files -->
  <line x1="70" y1="260" x2="70" y2="380" stroke="#cbd5e0" stroke-width="1.2"/>
  <line x1="70" y1="380" x2="90" y2="380" stroke="#cbd5e0" stroke-width="1.2"/>
  <rect x="94" y="368" width="180" height="20" rx="4" fill="#f1f5f9" stroke="#cbd5e0" stroke-width="0.8"/>
  <text x="102" y="382" font-size="11" font-family="'Consolas', monospace" fill="#475569">NetworkMounts.rdef</text>
  <text x="290" y="382" font-size="10" fill="#94a3b8">Resources</text>

  <line x1="70" y1="380" x2="70" y2="404" stroke="#cbd5e0" stroke-width="1.2"/>
  <line x1="70" y1="404" x2="90" y2="404" stroke="#cbd5e0" stroke-width="1.2"/>
  <rect x="94" y="392" width="100" height="20" rx="4" fill="#f1f5f9" stroke="#cbd5e0" stroke-width="0.8"/>
  <text x="102" y="406" font-size="11" font-family="'Consolas', monospace" fill="#475569">Makefile</text>
  <text x="210" y="406" font-size="10" fill="#94a3b8">Build system</text>

  <line x1="70" y1="404" x2="70" y2="428" stroke="#cbd5e0" stroke-width="1.2"/>
  <line x1="70" y1="428" x2="90" y2="428" stroke="#cbd5e0" stroke-width="1.2"/>
  <rect x="94" y="416" width="120" height="20" rx="4" fill="#f1f5f9" stroke="#cbd5e0" stroke-width="0.8"/>
  <text x="102" y="430" font-size="11" font-family="'Consolas', monospace" fill="#475569">README.md</text>

  <line x1="70" y1="428" x2="70" y2="452" stroke="#cbd5e0" stroke-width="1.2"/>
  <line x1="70" y1="452" x2="90" y2="452" stroke="#cbd5e0" stroke-width="1.2"/>
  <rect x="94" y="440" width="180" height="20" rx="4" fill="#f1f5f9" stroke="#cbd5e0" stroke-width="0.8"/>
  <text x="102" y="454" font-size="11" font-family="'Consolas', monospace" fill="#475569">DOCUMENTATION.md</text>
</svg>
